<svg width="24" height="24" viewBox="0 0 24 24" fill="none" xmlns="http://www.w3.org/2000/svg">
<path d="M4 5.93557V17.6003C4 19.2741 4 20.1109 4.27216 20.623C4.77659 21.5723 5.8821 22.1178 7.01823 21.9784C7.63121 21.9032 8.38618 21.439 9.89613 20.5105L9.89975 20.5083C10.4982 20.1403 10.7975 19.9562 11.1106 19.8542C11.6856 19.6667 12.313 19.6667 12.888 19.8542C13.2017 19.9564 13.5022 20.1412 14.1031 20.5107C15.613 21.4391 16.3689 21.903 16.9818 21.9782C18.118 22.1176 19.2234 21.5723 19.7279 20.623C20 20.1109 20 19.2739 20 17.6003V5.93153C20 4.55673 20 3.8683 19.7096 3.34268C19.454 2.87988 19.045 2.50389 18.5432 2.26808C17.9728 2 17.2271 2 15.7336 2H8.26693C6.77345 2 6.02616 2 5.45573 2.26808C4.95396 2.50389 4.54631 2.87988 4.29065 3.34268C4 3.86881 4 4.55807 4 5.93557Z" fill="#5E6CFF" stroke="#5E6CFF" stroke-width="2" stroke-linecap="round" stroke-linejoin="round"/>
</svg>
