<svg width="24" height="24" viewBox="0 0 24 24" fill="none" xmlns="http://www.w3.org/2000/svg">
<g id="Icon">
<path id="Vector" d="M6 6.95168V15.7002C6 16.9556 6 17.5832 6.20412 17.9673C6.58245 18.6792 7.41157 19.0884 8.26367 18.9838C8.7234 18.9274 9.28964 18.5792 10.4221 17.8829L10.4248 17.8812C10.8737 17.6052 11.0981 17.4672 11.333 17.3906C11.7642 17.25 12.2348 17.25 12.666 17.3906C12.9013 17.4673 13.1266 17.6059 13.5773 17.883C14.7098 18.5794 15.2767 18.9272 15.7364 18.9837C16.5885 19.0882 17.4176 18.6792 17.7959 17.9673C18 17.5832 18 16.9554 18 15.7002V6.94865C18 5.91754 18 5.40122 17.7822 5.00701C17.5905 4.65991 17.2837 4.37791 16.9074 4.20106C16.4796 4 15.9203 4 14.8002 4H9.2002C8.08009 4 7.51962 4 7.0918 4.20106C6.71547 4.37791 6.40973 4.65991 6.21799 5.00701C6 5.40161 6 5.91856 6 6.95168Z" stroke="white" stroke-width="1.5" stroke-linecap="round" stroke-linejoin="round"/>
</g>
</svg>
