<svg width="45" height="45" viewBox="0 0 45 45" fill="none" xmlns="http://www.w3.org/2000/svg">
<g id="Icon">
<g id="Vector">
<path d="M23.5782 35.8822L22.5 37.4996L21.4097 35.8645C20.4407 34.4111 19.9548 33.6822 19.3121 33.154C18.7409 32.6844 18.0807 32.3326 17.3732 32.1177C16.5739 31.875 15.6936 31.875 13.9326 31.875H8.62119C7.57314 31.875 7.04925 31.875 6.64856 31.6708C6.29576 31.4911 6.00913 31.2035 5.82936 30.8507C5.625 30.4496 5.625 29.9253 5.625 28.8752L5.625 12.3752C5.625 11.3251 5.625 10.7996 5.82936 10.3985C6.00913 10.0457 6.29576 9.75911 6.64856 9.57935C7.04964 9.37498 7.57417 9.37498 8.62427 9.37498H13.4993C16.6496 9.37498 18.2251 9.37498 19.4283 9.98807C20.4867 10.5274 21.3473 11.3882 21.8866 12.4466C22.4997 13.6498 22.5 15.2243 22.5 18.3746C22.5 15.2243 22.5 13.6498 23.1131 12.4466C23.6524 11.3882 24.5123 10.5274 25.5707 9.98807C26.7739 9.37498 28.3493 9.37498 31.4996 9.37498H36.3746C37.4247 9.37498 37.9502 9.37498 38.3512 9.57935C38.704 9.75911 38.9902 10.0457 39.1699 10.3985C39.3743 10.7996 39.375 11.3251 39.375 12.3752V28.8752C39.375 29.9253 39.3743 30.4496 39.1699 30.8507C38.9902 31.2035 38.7047 31.4911 38.3519 31.6708C37.9512 31.875 37.4269 31.875 36.3788 31.875L31.0675 31.875C29.3065 31.875 28.4244 31.875 27.6251 32.1177C26.9176 32.3326 26.2606 32.6844 25.6893 33.154C25.044 33.6844 24.555 34.417 23.5782 35.8822Z" fill="#4351D9"/>
<path d="M22.5 18.3746V37.4996M22.5 18.3746C22.5 15.2243 22.5 13.6498 23.1131 12.4466C23.6524 11.3882 24.5123 10.5274 25.5707 9.98807C26.7739 9.37498 28.3493 9.37498 31.4996 9.37498H36.3746C37.4247 9.37498 37.9502 9.37498 38.3512 9.57935C38.704 9.75911 38.9902 10.0457 39.1699 10.3985C39.3743 10.7996 39.375 11.3251 39.375 12.3752V28.8752C39.375 29.9253 39.3743 30.4496 39.1699 30.8507C38.9902 31.2035 38.7047 31.4911 38.3519 31.6708C37.9512 31.875 37.4269 31.875 36.3788 31.875L31.0675 31.875C29.3065 31.875 28.4244 31.875 27.6251 32.1177C26.9176 32.3326 26.2606 32.6844 25.6893 33.154C25.044 33.6844 24.555 34.417 23.5782 35.8822L22.5 37.4996M22.5 18.3746C22.5 15.2243 22.4997 13.6498 21.8866 12.4466C21.3473 11.3882 20.4867 10.5274 19.4283 9.98807C18.2251 9.37498 16.6496 9.37498 13.4993 9.37498H8.62427C7.57417 9.37498 7.04964 9.37498 6.64856 9.57935C6.29576 9.75911 6.00913 10.0457 5.82936 10.3985C5.625 10.7996 5.625 11.3251 5.625 12.3752L5.625 28.8752C5.625 29.9253 5.625 30.4496 5.82936 30.8507C6.00913 31.2035 6.29576 31.4911 6.64856 31.6708C7.04925 31.875 7.57314 31.875 8.62119 31.875H13.9326C15.6936 31.875 16.5739 31.875 17.3732 32.1177C18.0807 32.3326 18.7409 32.6844 19.3121 33.154C19.9548 33.6822 20.4407 34.4111 21.4097 35.8645L22.5 37.4996" stroke="#4351D9" stroke-width="1.5" stroke-linecap="round" stroke-linejoin="round"/>
</g>
</g>
</svg>
