<svg width="24" height="24" viewBox="0 0 24 24" fill="none" xmlns="http://www.w3.org/2000/svg">
<g id="Icon">
<path id="Vector" d="M13.5556 10.4444V15.8889M10.4445 10.4444V15.8889M7.33339 7.33333V16.5111C7.33339 17.3823 7.33339 17.8176 7.50293 18.1504C7.65207 18.443 7.88987 18.6815 8.18256 18.8306C8.51499 19 8.95038 19 9.81987 19H14.1802C15.0497 19 15.4845 19 15.8169 18.8306C16.1096 18.6815 16.3482 18.443 16.4973 18.1504C16.6667 17.8179 16.6667 17.383 16.6667 16.5135V7.33333M7.33339 7.33333H8.88894M7.33339 7.33333H5.77783M8.88894 7.33333H15.1112M8.88894 7.33333C8.88894 6.60854 8.88894 6.24632 9.00735 5.96045C9.16523 5.57929 9.46786 5.27629 9.84901 5.11841C10.1349 5 10.4975 5 11.2223 5H12.7778C13.5026 5 13.865 5 14.1509 5.11841C14.532 5.27629 14.8348 5.57929 14.9927 5.96045C15.1111 6.24631 15.1112 6.60854 15.1112 7.33333M15.1112 7.33333H16.6667M16.6667 7.33333H18.2223" stroke="white" stroke-linecap="round" stroke-linejoin="round"/>
</g>
</svg>
