<svg width="147" height="146" viewBox="0 0 147 146" fill="none" xmlns="http://www.w3.org/2000/svg">
<g id="Group 2085665011">
<g id="Group 2085665009">
<g id="Group 2085665004">
<circle id="Ellipse 7986" cx="85.7605" cy="60.6765" r="42.9048" transform="rotate(45 85.7605 60.6765)" fill="#3140D4"/>
<path id="Star 1" d="M106.595 30.1707L105.997 38.4566L112.279 43.8926L105.997 49.3286L106.595 57.6145L98.3091 57.0163L92.873 63.2984L87.437 57.0163L79.1511 57.6145L79.7493 49.3286L73.4673 43.8926L79.7493 38.4566L79.1511 30.1707L87.437 30.7689L92.873 24.4869L98.3091 30.7689L106.595 30.1707Z" fill="#0F1A8A"/>
</g>
</g>
<g id="Group 2085665008">
<g id="Group 2085665004_2">
<circle id="Ellipse 7986_2" cx="42.9048" cy="102.781" r="42.9048" fill="#5E6CFF"/>
<path id="Star 1_2" d="M34.7085 66.2993L40.0906 72.6872L48.2944 72.0789L47.7021 80.5044L53.9218 86.0319L47.7021 91.5595L48.2944 99.985L40.0906 99.3767L34.7085 105.765L29.3263 99.3767L21.1226 99.985L21.7149 91.5595L15.4951 86.0319L21.7149 80.5044L21.1226 72.0789L29.3263 72.6872L34.7085 66.2993Z" fill="#2A35A0"/>
</g>
</g>
</g>
</svg>
