<svg width="25" height="24" viewBox="0 0 25 24" fill="none" xmlns="http://www.w3.org/2000/svg">
<g id="Icon">
<path id="Vector" d="M13 15V12.75M13 12.75V10.5M13 12.75H10.8462M13 12.75H15.1539M6.53857 7.5V15.6C6.53857 16.4401 6.53857 16.8598 6.69508 17.1807C6.83274 17.4629 7.05224 17.6929 7.32242 17.8367C7.62927 18 8.03117 18 8.83376 18H17.1663C17.9689 18 18.3702 18 18.6771 17.8367C18.9472 17.6929 19.1675 17.4631 19.3051 17.1808C19.4617 16.86 19.4617 16.4399 19.4617 15.5999L19.4617 9.89983C19.4617 9.05975 19.4617 8.63972 19.3051 8.31885C19.1675 8.0366 18.9474 7.8073 18.6772 7.66349C18.3701 7.5 17.9683 7.5 17.1641 7.5H13M6.53857 7.5H13M6.53857 7.5C6.53857 6.67157 7.18144 6 7.97445 6H10.6125C10.9637 6 11.1398 6 11.305 6.04145C11.4515 6.07819 11.5913 6.13895 11.7198 6.22119C11.8647 6.31392 11.989 6.44386 12.2372 6.70312L13 7.5" stroke="white" stroke-width="1.5" stroke-linecap="round" stroke-linejoin="round"/>
</g>
</svg>
