<svg width="24" height="24" viewBox="0 0 24 24" fill="none" xmlns="http://www.w3.org/2000/svg">
<g id="Icon">
<path id="Vector" d="M11.5 14.3125L14.3125 11.5M14.3125 11.5L11.5 8.6875M14.3125 11.5H4M8.6875 7.04555V7.00018C8.6875 5.95008 8.6875 5.42464 8.89186 5.02356C9.07163 4.67076 9.35826 4.38413 9.71106 4.20436C10.1121 4 10.6376 4 11.6877 4H16.0002C17.0503 4 17.5746 4 17.9757 4.20436C18.3285 4.38413 18.6161 4.67076 18.7958 5.02356C19 5.42425 19 5.94906 19 6.9971V16.0034C19 17.0514 19 17.5754 18.7958 17.9761C18.6161 18.3289 18.3285 18.6161 17.9757 18.7958C17.575 19 17.0509 19 16.0029 19H11.6846C10.6366 19 10.1118 19 9.71106 18.7958C9.35826 18.6161 9.07163 18.3287 8.89186 17.9759C8.6875 17.5748 8.6875 17.0501 8.6875 16V15.9531" stroke="white" stroke-width="1.5" stroke-linecap="round" stroke-linejoin="round"/>
</g>
</svg>
