<svg width="16" height="16" viewBox="0 0 16 16" fill="none" xmlns="http://www.w3.org/2000/svg">
<g id="settings-01" clip-path="url(#clip0_15_1942)">
<g id="Icon">
<path d="M7.99967 9.9987C9.10424 9.9987 9.99967 9.10327 9.99967 7.9987C9.99967 6.89413 9.10424 5.9987 7.99967 5.9987C6.89511 5.9987 5.99967 6.89413 5.99967 7.9987C5.99967 9.10327 6.89511 9.9987 7.99967 9.9987Z" stroke="white" stroke-linecap="round" stroke-linejoin="round"/>
<path d="M12.4845 9.81688C12.4038 9.99968 12.3798 10.2025 12.4154 10.3991C12.4511 10.5957 12.5448 10.7771 12.6845 10.9199L12.7209 10.9563C12.8336 11.0688 12.923 11.2025 12.984 11.3497C13.045 11.4968 13.0764 11.6546 13.0764 11.8139C13.0764 11.9731 13.045 12.1309 12.984 12.278C12.923 12.4252 12.8336 12.5589 12.7209 12.6714C12.6083 12.7841 12.4746 12.8735 12.3275 12.9345C12.1803 12.9955 12.0226 13.0269 11.8633 13.0269C11.704 13.0269 11.5463 12.9955 11.3991 12.9345C11.252 12.8735 11.1183 12.7841 11.0057 12.6714L10.9694 12.6351C10.8265 12.4953 10.6451 12.4016 10.4485 12.366C10.2519 12.3303 10.0491 12.3544 9.86634 12.4351C9.68709 12.5119 9.53421 12.6395 9.42653 12.8021C9.31885 12.9647 9.26106 13.1552 9.26028 13.3502V13.4532C9.26028 13.7747 9.13258 14.083 8.90526 14.3103C8.67794 14.5377 8.36963 14.6654 8.04816 14.6654C7.72668 14.6654 7.41838 14.5377 7.19106 14.3103C6.96374 14.083 6.83604 13.7747 6.83604 13.4532V13.3987C6.83135 13.1981 6.76641 13.0035 6.64968 12.8403C6.53295 12.6771 6.36982 12.5528 6.18149 12.4835C5.9987 12.4029 5.79592 12.3788 5.59932 12.4145C5.40271 12.4501 5.2213 12.5438 5.07846 12.6835L5.0421 12.7199C4.92953 12.8326 4.79584 12.922 4.64869 12.983C4.50154 13.044 4.34381 13.0754 4.18452 13.0754C4.02523 13.0754 3.8675 13.044 3.72035 12.983C3.5732 12.922 3.43952 12.8326 3.32695 12.7199C3.21425 12.6073 3.12484 12.4737 3.06384 12.3265C3.00285 12.1794 2.97145 12.0216 2.97145 11.8623C2.97145 11.703 3.00285 11.5453 3.06384 11.3982C3.12484 11.251 3.21425 11.1173 3.32695 11.0048L3.36331 10.9684C3.50303 10.8256 3.59676 10.6441 3.6324 10.4475C3.66805 10.2509 3.64399 10.0482 3.56331 9.86536C3.48648 9.68611 3.35892 9.53323 3.19632 9.42555C3.03372 9.31787 2.84318 9.26008 2.64816 9.2593H2.54513C2.22365 9.2593 1.91535 9.1316 1.68803 8.90428C1.46071 8.67697 1.33301 8.36866 1.33301 8.04718C1.33301 7.72571 1.46071 7.4174 1.68803 7.19008C1.91535 6.96277 2.22365 6.83506 2.54513 6.83506H2.59967C2.80028 6.83037 2.99483 6.76544 3.15804 6.6487C3.32125 6.53197 3.44556 6.36884 3.51483 6.18052C3.5955 5.99772 3.61957 5.79494 3.58392 5.59834C3.54827 5.40174 3.45455 5.22032 3.31483 5.07749L3.27846 5.04112C3.16576 4.92855 3.07636 4.79487 3.01536 4.64772C2.95436 4.50057 2.92296 4.34284 2.92296 4.18355C2.92296 4.02425 2.95436 3.86653 3.01536 3.71938C3.07636 3.57223 3.16576 3.43854 3.27846 3.32597C3.39104 3.21327 3.52472 3.12387 3.67187 3.06287C3.81902 3.00187 3.97675 2.97047 4.13604 2.97047C4.29533 2.97047 4.45306 3.00187 4.60021 3.06287C4.74736 3.12387 4.88104 3.21327 4.99361 3.32597L5.02998 3.36233C5.17281 3.50205 5.35423 3.59578 5.55083 3.63143C5.74744 3.66708 5.95021 3.64301 6.13301 3.56233H6.18149C6.36075 3.48551 6.51362 3.35794 6.62131 3.19534C6.72899 3.03274 6.78678 2.84221 6.78755 2.64718V2.54415C6.78755 2.22268 6.91526 1.91437 7.14258 1.68705C7.36989 1.45974 7.6782 1.33203 7.99967 1.33203C8.32115 1.33203 8.62946 1.45974 8.85677 1.68705C9.08409 1.91437 9.2118 2.22268 9.2118 2.54415V2.5987C9.21257 2.79372 9.27036 2.98426 9.37804 3.14686C9.48573 3.30946 9.6386 3.43702 9.81786 3.51385C10.0007 3.59453 10.2034 3.61859 10.4 3.58294C10.5966 3.5473 10.7781 3.45357 10.9209 3.31385L10.9573 3.27749C11.0698 3.16479 11.2035 3.07538 11.3507 3.01438C11.4978 2.95338 11.6555 2.92199 11.8148 2.92199C11.9741 2.92199 12.1318 2.95338 12.279 3.01438C12.4261 3.07538 12.5598 3.16479 12.6724 3.27749C12.7851 3.39006 12.8745 3.52374 12.9355 3.67089C12.9965 3.81804 13.0279 3.97577 13.0279 4.13506C13.0279 4.29435 12.9965 4.45208 12.9355 4.59923C12.8745 4.74638 12.7851 4.88006 12.6724 4.99264L12.636 5.029C12.4963 5.17184 12.4026 5.35325 12.3669 5.54986C12.3313 5.74646 12.3554 5.94923 12.436 6.13203V6.18052C12.5129 6.35977 12.6404 6.51265 12.803 6.62033C12.9656 6.72801 13.1562 6.7858 13.3512 6.78658H13.4542C13.7757 6.78658 14.084 6.91428 14.3113 7.1416C14.5386 7.36892 14.6663 7.67722 14.6663 7.9987C14.6663 8.32017 14.5386 8.62848 14.3113 8.8558C14.084 9.08311 13.7757 9.21082 13.4542 9.21082H13.3997C13.2047 9.2116 13.0141 9.26938 12.8515 9.37707C12.6889 9.48475 12.5613 9.63763 12.4845 9.81688Z" stroke="white" stroke-linecap="round" stroke-linejoin="round"/>
</g>
</g>
<defs>
<clipPath id="clip0_15_1942">
<rect width="16" height="16" fill="white"/>
</clipPath>
</defs>
</svg>
