<svg width="25" height="24" viewBox="0 0 25 24" fill="none" xmlns="http://www.w3.org/2000/svg">
<g id="Icon">
<path id="Vector" d="M10.1668 6.55556H7.98904C7.11785 6.55556 6.68193 6.55556 6.34918 6.7251C6.05648 6.87424 5.81868 7.11203 5.66955 7.40473C5.5 7.73748 5.5 8.1734 5.5 9.0446V16.5113C5.5 17.3825 5.5 17.8178 5.66955 18.1506C5.81868 18.4433 6.05648 18.6815 6.34918 18.8306C6.6816 19 7.117 19 7.98649 19H15.458C16.3274 19 16.7622 19 17.0946 18.8306C17.3873 18.6815 17.6259 18.443 17.7751 18.1504C17.9444 17.8179 17.9444 17.383 17.9444 16.5135V14.3333M14.8333 7.33333L10.1667 12V14.3333H12.5L17.1667 9.66667M14.8333 7.33333L17.1667 5L19.5 7.33333L17.1667 9.66667M14.8333 7.33333L17.1667 9.66667" stroke="white" stroke-linecap="round" stroke-linejoin="round"/>
</g>
</svg>
